<svg xmlns="http://www.w3.org/2000/svg" viewBox="0 0 560 440"><rect width="560" height="440" rx="16" fill="#10212c"/><g font-family="Arial,sans-serif">
<text x="30" y="42" fill="#b7d7cb" font-size="17" letter-spacing="2">TURN A FAILURE INTO A CONTROL</text>
<path d="M62 111V346" fill="none" stroke="#4c7666" stroke-width="2"/>
<g fill="#172f38" stroke="#42645d"><rect x="96" y="74" width="432" height="64" rx="8"/><rect x="96" y="158" width="432" height="64" rx="8"/><rect x="96" y="242" width="432" height="64" rx="8"/><rect x="96" y="326" width="432" height="64" rx="8"/></g>
<g fill="#29453f" stroke="#6da48b"><circle cx="62" cy="106" r="20"/><circle cx="62" cy="190" r="20"/><circle cx="62" cy="274" r="20"/><circle cx="62" cy="358" r="20"/></g>
<g fill="#c3e4d5" text-anchor="middle" font-size="17"><text x="62" y="112">01</text><text x="62" y="196">02</text><text x="62" y="280">03</text><text x="62" y="364">04</text></g>
<g font-size="13" letter-spacing="1.5" fill="#90c8b0"><text x="118" y="97">FAILURE</text><text x="118" y="181">CAUSE</text><text x="118" y="265">CHECK</text><text x="118" y="349">RESPONSE</text></g>
<g font-size="21" fill="#e9f4ec"><text x="118" y="123">Duplicate service record</text><text x="118" y="207">Multiple writable sources</text><text x="118" y="291">Validate unique records</text><text x="118" y="375">Flag the change for its owner</text></g></g></svg>
